<svg width="252" height="224" viewBox="0 0 252 224" fill="none" xmlns="http://www.w3.org/2000/svg">
<rect x="21.9927" width="10.9964" height="11.2868" fill="#EB6060" fill-opacity="0.78"/>
<rect x="64.1455" width="10.9964" height="11.2868" fill="#EB6060" fill-opacity="0.78"/>
<rect x="105.382" width="10.9964" height="11.2868" fill="#EB6060" fill-opacity="0.78"/>
<rect x="145.702" width="10.9964" height="11.2868" fill="#EB6060" fill-opacity="0.78"/>
<rect x="192.436" width="10.9964" height="11.2868" fill="#EB6060" fill-opacity="0.78"/>
<rect x="241.004" width="10.9964" height="11.2868" fill="#EB6060" fill-opacity="0.78"/>
<rect x="21.9927" y="39.938" width="10.9964" height="11.2868" fill="#EB6060" fill-opacity="0.78"/>
<rect x="64.1455" y="39.938" width="10.9964" height="11.2868" fill="#EB6060" fill-opacity="0.78"/>
<rect x="105.382" y="39.938" width="10.9964" height="11.2868" fill="#EB6060" fill-opacity="0.78"/>
<rect x="145.702" y="39.938" width="10.9964" height="11.2868" fill="#EB6060" fill-opacity="0.78"/>
<rect x="192.436" y="39.938" width="10.9964" height="11.2868" fill="#EB6060" fill-opacity="0.78"/>
<rect x="241.004" y="39.938" width="10.9964" height="11.2868" fill="#EB6060" fill-opacity="0.78"/>
<rect x="21.9927" y="80.7442" width="10.9964" height="11.2868" fill="#EB6060" fill-opacity="0.78"/>
<rect x="64.1455" y="80.7442" width="10.9964" height="11.2868" fill="#EB6060" fill-opacity="0.78"/>
<rect x="105.382" y="80.7442" width="10.9964" height="11.2868" fill="#EB6060" fill-opacity="0.78"/>
<rect x="145.702" y="80.7442" width="10.9964" height="11.2868" fill="#EB6060" fill-opacity="0.78"/>
<rect x="192.436" y="80.7442" width="10.9964" height="11.2868" fill="#EB6060" fill-opacity="0.78"/>
<rect x="241.004" y="80.7442" width="10.9964" height="11.2868" fill="#EB6060" fill-opacity="0.78"/>
<rect x="21.9927" y="123.287" width="10.9964" height="11.2868" fill="#EB6060" fill-opacity="0.78"/>
<rect x="64.1455" y="123.287" width="10.9964" height="11.2868" fill="#EB6060" fill-opacity="0.78"/>
<rect x="105.382" y="123.287" width="10.9964" height="11.2868" fill="#EB6060" fill-opacity="0.78"/>
<rect x="145.702" y="123.287" width="10.9964" height="11.2868" fill="#EB6060" fill-opacity="0.78"/>
<rect x="192.436" y="123.287" width="10.9964" height="11.2868" fill="#EB6060" fill-opacity="0.78"/>
<rect x="241.004" y="123.287" width="10.9964" height="11.2868" fill="#EB6060" fill-opacity="0.78"/>
<rect x="21.9927" y="165.829" width="10.9964" height="11.2868" fill="#EB6060" fill-opacity="0.78"/>
<rect x="64.1455" y="165.829" width="10.9964" height="11.2868" fill="#EB6060" fill-opacity="0.78"/>
<rect x="105.382" y="165.829" width="10.9964" height="11.2868" fill="#EB6060" fill-opacity="0.78"/>
<rect x="145.702" y="165.829" width="10.9964" height="11.2868" fill="#EB6060" fill-opacity="0.78"/>
<rect x="192.436" y="165.829" width="10.9964" height="11.2868" fill="#EB6060" fill-opacity="0.78"/>
<rect x="241.004" y="165.829" width="10.9964" height="11.2868" fill="#EB6060" fill-opacity="0.78"/>
<rect x="21.9927" y="212.713" width="10.9964" height="11.2868" fill="#EB6060" fill-opacity="0.78"/>
<rect x="64.1455" y="212.713" width="10.9964" height="11.2868" fill="#EB6060" fill-opacity="0.78"/>
<rect x="105.382" y="212.713" width="10.9964" height="11.2868" fill="#EB6060" fill-opacity="0.78"/>
<rect x="145.702" y="212.713" width="10.9964" height="11.2868" fill="#EB6060" fill-opacity="0.78"/>
<rect x="192.436" y="212.713" width="10.9964" height="11.2868" fill="#EB6060" fill-opacity="0.78"/>
<rect x="241.004" y="212.713" width="10.9964" height="11.2868" fill="#EB6060" fill-opacity="0.78"/>
</svg>
