<svg width="13" height="12" viewBox="0 0 13 12" fill="none" xmlns="http://www.w3.org/2000/svg">
<path d="M10.082 3.375V5.125M10.082 5.125V6.875M10.082 5.125H11.832M10.082 5.125H8.33203M7.01953 2.71875C7.01953 2.97729 6.96861 3.2333 6.86967 3.47216C6.77073 3.71102 6.62571 3.92805 6.4429 4.11087C6.26008 4.29368 6.04305 4.4387 5.80419 4.53764C5.56533 4.63658 5.30932 4.6875 5.05078 4.6875C4.79224 4.6875 4.53623 4.63658 4.29737 4.53764C4.05851 4.4387 3.84148 4.29368 3.65866 4.11087C3.47585 3.92805 3.33083 3.71102 3.23189 3.47216C3.13295 3.2333 3.08203 2.97729 3.08203 2.71875C3.08203 2.1966 3.28945 1.69585 3.65866 1.32663C4.02788 0.957421 4.52864 0.75 5.05078 0.75C5.57293 0.75 6.07369 0.957421 6.4429 1.32663C6.81211 1.69585 7.01953 2.1966 7.01953 2.71875ZM1.33203 10.2204V10.1562C1.33203 9.16998 1.72383 8.2241 2.42123 7.5267C3.11863 6.8293 4.06451 6.4375 5.05078 6.4375C6.03705 6.4375 6.98293 6.8293 7.68033 7.5267C8.37774 8.2241 8.76953 9.16998 8.76953 10.1562V10.2198C7.64689 10.896 6.36072 11.2522 5.0502 11.25C3.69045 11.25 2.4182 10.8737 1.33203 10.2198V10.2204Z" stroke="white" stroke-linecap="round" stroke-linejoin="round"/>
</svg>
