<svg width="26" height="24" viewBox="0 0 26 24" fill="none" xmlns="http://www.w3.org/2000/svg">
<path d="M16.4375 15.75C17.645 15.75 18.625 16.73 18.625 17.9375L18.6238 19.14C18.77 21.8775 16.735 23.2613 13.0838 23.2613C9.44625 23.2613 7.375 21.8988 7.375 19.1875V17.9375C7.375 16.73 8.355 15.75 9.5625 15.75H16.4375ZM2.6875 9.5H8.1575C7.9394 10.3487 7.94779 11.2398 8.18183 12.0843C8.41587 12.9288 8.86737 13.6971 9.49125 14.3125L9.69375 14.5013L9.5625 14.5C8.81229 14.4997 8.08258 14.7449 7.48472 15.1981C6.88686 15.6513 6.45367 16.2876 6.25125 17.01L6.20875 17.0113C2.57125 17.0113 0.5 15.6488 0.5 12.9375V11.6875C0.5 10.48 1.48 9.5 2.6875 9.5ZM23.3125 9.5C24.52 9.5 25.5 10.48 25.5 11.6875L25.4988 12.89C25.645 15.6275 23.61 17.0113 19.9587 17.0113L19.7475 17.0088C19.5553 16.3279 19.1582 15.7227 18.61 15.2754C18.0619 14.8281 17.3893 14.5604 16.6838 14.5087L16.4375 14.5L16.3063 14.5013C17.0001 13.8918 17.5112 13.1016 17.7824 12.2188C18.0537 11.336 18.0745 10.3952 17.8425 9.50125L23.3125 9.5ZM13 7C13.4925 7 13.9801 7.097 14.4351 7.28545C14.89 7.47391 15.3034 7.75013 15.6517 8.09835C15.9999 8.44657 16.2761 8.85997 16.4645 9.31494C16.653 9.76991 16.75 10.2575 16.75 10.75C16.75 11.2425 16.653 11.7301 16.4645 12.1851C16.2761 12.64 15.9999 13.0534 15.6517 13.4017C15.3034 13.7499 14.89 14.0261 14.4351 14.2145C13.9801 14.403 13.4925 14.5 13 14.5C12.0054 14.5 11.0516 14.1049 10.3483 13.4017C9.64509 12.6984 9.25 11.7446 9.25 10.75C9.25 9.75544 9.64509 8.80161 10.3483 8.09835C11.0516 7.39509 12.0054 7 13 7ZM6.125 0.75C7.11956 0.75 8.07339 1.14509 8.77665 1.84835C9.47991 2.55161 9.875 3.50544 9.875 4.5C9.875 5.49456 9.47991 6.44839 8.77665 7.15165C8.07339 7.85491 7.11956 8.25 6.125 8.25C5.13044 8.25 4.17661 7.85491 3.47335 7.15165C2.77009 6.44839 2.375 5.49456 2.375 4.5C2.375 3.50544 2.77009 2.55161 3.47335 1.84835C4.17661 1.14509 5.13044 0.75 6.125 0.75ZM19.875 0.75C20.8696 0.75 21.8234 1.14509 22.5267 1.84835C23.2299 2.55161 23.625 3.50544 23.625 4.5C23.625 5.49456 23.2299 6.44839 22.5267 7.15165C21.8234 7.85491 20.8696 8.25 19.875 8.25C18.8804 8.25 17.9266 7.85491 17.2233 7.15165C16.5201 6.44839 16.125 5.49456 16.125 4.5C16.125 3.50544 16.5201 2.55161 17.2233 1.84835C17.9266 1.14509 18.8804 0.75 19.875 0.75Z" fill="#011A31"/>
</svg>
