<svg width="17" height="21" viewBox="0 0 17 21" fill="none" xmlns="http://www.w3.org/2000/svg">
<path d="M14.5004 18.373L14.5034 16.25L14.5034 5.746C14.5034 4.88404 14.161 4.05739 13.5515 3.4479C12.942 2.83841 12.1154 2.496 11.2534 2.496L2.63742 2.496C2.79268 2.05729 3.08009 1.67749 3.46011 1.40887C3.84012 1.14024 4.29405 0.996004 4.75942 0.995998L11.2534 0.995998C12.5132 0.995998 13.7214 1.49644 14.6122 2.38724C15.503 3.27804 16.0034 4.48622 16.0034 5.746L16.0034 16.25C16.0034 17.23 15.3764 18.065 14.5004 18.373ZM2.25342 21C1.95794 21 1.66536 20.9418 1.39238 20.8287C1.1194 20.7157 0.871358 20.5499 0.662426 20.341C0.453494 20.1321 0.28776 19.884 0.174686 19.611C0.0616131 19.3381 0.00341606 19.0455 0.00341606 18.75L0.00341606 5.75C0.00341606 5.45452 0.0616131 5.16194 0.174686 4.88896C0.28776 4.61598 0.453494 4.36794 0.662426 4.15901C0.871358 3.95008 1.1194 3.78434 1.39238 3.67127C1.66536 3.55819 1.95794 3.5 2.25342 3.5L11.2534 3.5C11.8502 3.5 12.4225 3.73705 12.8444 4.15901C13.2664 4.58096 13.5034 5.15326 13.5034 5.75L13.5034 18.75C13.5034 19.3467 13.2664 19.919 12.8444 20.341C12.4225 20.7629 11.8502 21 11.2534 21L2.25342 21Z" fill="#94A6B6"/>
</svg>
