<svg width="20" height="20" viewBox="0 0 20 20" fill="none" xmlns="http://www.w3.org/2000/svg">
<path d="M10.5999 12.4C11.0773 12.4 11.5351 12.5896 11.8727 12.9272C12.2103 13.2648 12.3999 13.7226 12.3999 14.2V14.8C12.3999 17.1652 10.1679 19.6 6.3999 19.6C2.6319 19.6 0.399902 17.1652 0.399902 14.8V14.2C0.399902 13.7226 0.589545 13.2648 0.92711 12.9272C1.26468 12.5896 1.72251 12.4 2.1999 12.4H10.5999ZM6.3999 4.59999C7.27512 4.59999 8.11449 4.94767 8.73336 5.56654C9.35223 6.18541 9.6999 7.02478 9.6999 7.89999C9.6999 8.77521 9.35223 9.61458 8.73336 10.2334C8.11449 10.8523 7.27512 11.2 6.3999 11.2C5.52469 11.2 4.68532 10.8523 4.06645 10.2334C3.44758 9.61458 3.0999 8.77521 3.0999 7.89999C3.0999 7.02478 3.44758 6.18541 4.06645 5.56654C4.68532 4.94767 5.52469 4.59999 6.3999 4.59999ZM17.1999 0.399994C17.8052 0.400105 18.3881 0.62892 18.8318 1.0406C19.2755 1.45228 19.5473 2.01641 19.5927 2.61999L19.5999 2.79999V5.19999C19.6001 5.80549 19.3714 6.38867 18.9597 6.83265C18.548 7.27663 17.9837 7.54858 17.3799 7.59399L17.1999 7.59999H15.3987L13.9611 9.51999C13.3251 10.3672 12.0363 10.024 11.8287 9.06879L11.8083 8.93559L11.7999 8.79999V7.52199L11.7063 7.49799C11.275 7.36732 10.8891 7.118 10.5926 6.7785C10.2962 6.43901 10.1012 6.02301 10.0299 5.57799L10.0059 5.37879L9.9999 5.19999V2.79999C9.99971 2.1945 10.2284 1.61131 10.6401 1.16734C11.0518 0.723359 11.6161 0.451406 12.2199 0.405994L12.3999 0.399994H17.1999Z" fill="#011A31"/>
</svg>
