<svg width="20" height="19" viewBox="0 0 20 19" fill="none" xmlns="http://www.w3.org/2000/svg">
<mask id="mask0_281_32" style="mask-type:luminance" maskUnits="userSpaceOnUse" x="0" y="0" width="20" height="19">
<path d="M2 2.83333C2 2.61232 2.08872 2.40036 2.24665 2.24408C2.40457 2.0878 2.61877 2 2.84211 2H7.89474L10 4.5H17.1579C17.3812 4.5 17.5954 4.5878 17.7534 4.74408C17.9113 4.90036 18 5.11232 18 5.33333V16.1667C18 16.3877 17.9113 16.5996 17.7534 16.7559C17.5954 16.9122 17.3812 17 17.1579 17H2.84211C2.61877 17 2.40457 16.9122 2.24665 16.7559C2.08872 16.5996 2 16.3877 2 16.1667V2.83333Z" fill="white" stroke="white" stroke-width="4" stroke-linejoin="round"/>
<path d="M7.89478 8.66666L12.1053 12.8333M12.1053 8.66666L7.89478 12.8333" stroke="black" stroke-width="4" stroke-linecap="round" stroke-linejoin="round"/>
</mask>
<g mask="url(#mask0_281_32)">
<path d="M-0.105225 -0.5H20.1053V19.5H-0.105225V-0.5Z" fill="white"/>
</g>
</svg>
