<svg width="21" height="21" viewBox="0 0 21 21" fill="none" xmlns="http://www.w3.org/2000/svg">
<g clip-path="url(#clip0_261_659)">
<path fill-rule="evenodd" clip-rule="evenodd" d="M10.5 2.75C6.21979 2.75 2.75 6.21979 2.75 10.5C2.75 14.7802 6.21979 18.25 10.5 18.25C14.7802 18.25 18.25 14.7802 18.25 10.5C18.25 6.21979 14.7802 2.75 10.5 2.75ZM0.75 10.5C0.75 5.11522 5.11522 0.75 10.5 0.75C15.8848 0.75 20.25 5.11522 20.25 10.5C20.25 15.8848 15.8848 20.25 10.5 20.25C5.11522 20.25 0.75 15.8848 0.75 10.5Z" fill="white"/>
<path fill-rule="evenodd" clip-rule="evenodd" d="M10.5 4.25C11.0523 4.25 11.5 4.69772 11.5 5.25V9.5H14.4375C14.9898 9.5 15.4375 9.94772 15.4375 10.5C15.4375 11.0523 14.9898 11.5 14.4375 11.5H10.5C9.94772 11.5 9.5 11.0523 9.5 10.5V5.25C9.5 4.69772 9.94772 4.25 10.5 4.25Z" fill="white"/>
</g>
<defs>
<clipPath id="clip0_261_659">
<rect width="21" height="21" fill="white"/>
</clipPath>
</defs>
</svg>
