<svg width="16" height="20" viewBox="0 0 16 20" fill="none" xmlns="http://www.w3.org/2000/svg">
<path d="M0.300021 9.8C0.716688 8.35 1.56269 6.81267 2.83802 5.188C4.11335 3.56333 5.83402 1.834 8.00002 0C10.1667 1.83333 11.8877 3.56267 13.163 5.188C14.4384 6.81333 15.284 8.35067 15.7 9.8H0.300021ZM15.85 13.45C15.7 14.2667 15.4374 15.0377 15.062 15.763C14.6867 16.4883 14.2077 17.1423 13.625 17.725C13.0417 18.3083 12.3874 18.7833 11.662 19.15C10.9367 19.5167 10.1744 19.7667 9.37502 19.9L15.85 13.45ZM11.775 11.8H14.625L6.52502 19.9C6.14169 19.8167 5.77069 19.7207 5.41202 19.612C5.05335 19.5033 4.70769 19.3577 4.37502 19.175L11.775 11.8ZM6.05002 11.8H8.90002L2.67502 18.025C2.42502 17.7917 2.18769 17.55 1.96302 17.3C1.73835 17.05 1.53402 16.7833 1.35002 16.5L6.05002 11.8ZM0.300021 11.8H3.15002L0.400021 14.55C0.266688 14.1 0.187354 13.6417 0.162021 13.175C0.136688 12.7083 0.182688 12.25 0.300021 11.8Z" fill="white"/>
</svg>
