<svg width="12" height="12" viewBox="0 0 12 12" fill="none" xmlns="http://www.w3.org/2000/svg">
<path d="M11.428 2.54375L11.1043 2.35727C11.1531 2.1638 11.1531 1.9612 11.1043 1.76773L11.428 1.58125C11.5034 1.53774 11.5585 1.46605 11.581 1.38195C11.6036 1.29785 11.5918 1.20823 11.5483 1.13281C11.5048 1.05739 11.4331 1.00234 11.349 0.979782C11.2649 0.957219 11.1753 0.968988 11.0999 1.0125L10.7756 1.20008C10.6327 1.06113 10.4576 0.959838 10.2659 0.905313V0.53125C10.2659 0.444226 10.2313 0.360766 10.1698 0.299231C10.1083 0.237695 10.0248 0.203125 9.93777 0.203125C9.85075 0.203125 9.76729 0.237695 9.70575 0.299231C9.64422 0.360766 9.60965 0.444226 9.60965 0.53125V0.905313C9.41796 0.959838 9.24282 1.06113 9.09996 1.20008L8.77566 1.0125C8.70024 0.968988 8.61063 0.957219 8.52653 0.979782C8.44243 1.00234 8.37074 1.05739 8.32723 1.13281C8.28372 1.20823 8.27195 1.29785 8.29451 1.38195C8.31707 1.46605 8.37212 1.53774 8.44754 1.58125L8.77129 1.76773C8.7224 1.9612 8.7224 2.1638 8.77129 2.35727L8.44754 2.54375C8.37212 2.58726 8.31707 2.65895 8.29451 2.74305C8.27195 2.82715 8.28372 2.91677 8.32723 2.99219C8.37074 3.06761 8.44243 3.12266 8.52653 3.14522C8.61063 3.16778 8.70024 3.15601 8.77566 3.1125L9.09996 2.92492C9.24282 3.06387 9.41796 3.16516 9.60965 3.21969V3.59375C9.60965 3.68077 9.64422 3.76423 9.70575 3.82577C9.76729 3.8873 9.85075 3.92188 9.93777 3.92188C10.0248 3.92188 10.1083 3.8873 10.1698 3.82577C10.2313 3.76423 10.2659 3.68077 10.2659 3.59375V3.21969C10.4576 3.16516 10.6327 3.06387 10.7756 2.92492L11.0999 3.1125C11.1753 3.15601 11.2649 3.16778 11.349 3.14522C11.4331 3.12266 11.5048 3.06761 11.5483 2.99219C11.5918 2.91677 11.6036 2.82715 11.581 2.74305C11.5585 2.65895 11.5034 2.58726 11.428 2.54375ZM9.93777 2.60938C9.82961 2.60938 9.72388 2.5773 9.63395 2.51721C9.54401 2.45712 9.47392 2.37171 9.43253 2.27178C9.39114 2.17185 9.38031 2.06189 9.40141 1.95581C9.42251 1.84973 9.47459 1.75228 9.55107 1.6758C9.62756 1.59932 9.725 1.54723 9.83108 1.52613C9.93717 1.50503 10.0471 1.51586 10.1471 1.55725C10.247 1.59864 10.3324 1.66874 10.3925 1.75867C10.4526 1.84861 10.4846 1.95434 10.4846 2.0625C10.4846 2.20754 10.427 2.34664 10.3245 2.4492C10.2219 2.55176 10.0828 2.60938 9.93777 2.60938ZM11.1234 4.80125C11.0376 4.81571 10.9611 4.86363 10.9106 4.9345C10.8602 5.00536 10.8399 5.09335 10.8543 5.17914C10.8994 5.45044 10.9221 5.72498 10.9221 6C10.9231 7.25354 10.4438 8.45983 9.58285 9.37094C9.0673 8.5693 8.29668 7.96475 7.39535 7.65484C7.84479 7.35549 8.18597 6.91946 8.36846 6.41123C8.55094 5.90299 8.56503 5.34952 8.40866 4.83265C8.25228 4.31578 7.93374 3.86295 7.50012 3.54111C7.0665 3.21927 6.54083 3.0455 6.00082 3.0455C5.46081 3.0455 4.93514 3.21927 4.50152 3.54111C4.0679 3.86295 3.74936 4.31578 3.59298 4.83265C3.43661 5.34952 3.4507 5.90299 3.63318 6.41123C3.81567 6.91946 4.15685 7.35549 4.60629 7.65484C3.70497 7.96475 2.93435 8.5693 2.41879 9.37094C1.75997 8.67183 1.32027 7.79513 1.15393 6.84902C0.987603 5.90291 1.10193 4.9288 1.48279 4.04691C1.86366 3.16502 2.49441 2.41395 3.29719 1.88638C4.09997 1.35881 5.03966 1.07783 6.00027 1.07812C6.27511 1.0782 6.54947 1.10088 6.82059 1.14594C6.86344 1.15402 6.90748 1.15347 6.95012 1.14433C6.99276 1.1352 7.03316 1.11765 7.06894 1.09272C7.10472 1.06779 7.13517 1.03598 7.15852 0.999143C7.18186 0.962308 7.19763 0.921188 7.2049 0.878188C7.21217 0.835188 7.2108 0.791171 7.20086 0.748708C7.19092 0.706246 7.17262 0.666191 7.14702 0.630884C7.12142 0.595578 7.08904 0.565728 7.05177 0.543081C7.0145 0.520434 6.97309 0.505443 6.92996 0.498984C6.00234 0.341801 5.05003 0.421803 4.16163 0.731546C3.27323 1.04129 2.47761 1.57071 1.84879 2.27055C1.21997 2.9704 0.778389 3.81792 0.565121 4.73428C0.351852 5.65064 0.37383 6.60605 0.62901 7.51163C0.884189 8.41721 1.36428 9.24353 2.02461 9.91372C2.68495 10.5839 3.50407 11.0762 4.40577 11.3448C5.30747 11.6133 6.26245 11.6494 7.18187 11.4498C8.10128 11.2501 8.95526 10.8211 9.66434 10.2027C9.69988 10.2771 9.75621 10.2027 9.7923 10.0873C10.4709 9.45842 10.9824 8.67057 11.2807 7.79477C11.5791 6.91896 11.6549 5.9827 11.5013 5.07031C11.4868 4.98453 11.4389 4.90801 11.368 4.85755C11.2972 4.8071 11.2092 4.78685 11.1234 4.80125ZM4.1409 5.5625C4.1409 5.19475 4.24995 4.83526 4.45426 4.52949C4.65857 4.22371 4.94897 3.98539 5.28872 3.84466C5.62848 3.70393 6.00234 3.66711 6.36302 3.73885C6.7237 3.8106 7.05501 3.98768 7.31505 4.24772C7.57509 4.50776 7.75218 4.83907 7.82392 5.19975C7.89567 5.56044 7.85884 5.9343 7.71811 6.27405C7.57738 6.61381 7.33906 6.9042 7.03329 7.10851C6.72752 7.31282 6.36802 7.42188 6.00027 7.42188C5.50714 7.42188 5.0342 7.22598 4.6855 6.87728C4.3368 6.52858 4.1409 6.05564 4.1409 5.5625ZM2.90715 9.82812C3.22805 9.29452 3.68154 8.85301 4.22354 8.5465C4.76553 8.23999 5.37761 8.0789 6.00027 8.0789C6.62294 8.0789 7.23501 8.23999 7.77701 8.5465C8.31901 8.85301 8.7725 9.29452 9.0934 9.82812C8.2186 10.5375 7.12655 10.9246 6.00027 10.9246C4.874 10.9246 3.78195 10.5375 2.90715 9.82812Z" fill="white"/>
</svg>
