<svg width="14" height="14" viewBox="0 0 14 14" fill="none" xmlns="http://www.w3.org/2000/svg">
<path d="M6.9987 0.333374C10.6807 0.333374 13.6654 3.31804 13.6654 7.00004C13.6654 10.682 10.6807 13.6667 6.9987 13.6667C3.3167 13.6667 0.332031 10.682 0.332031 7.00004C0.332031 3.31804 3.3167 0.333374 6.9987 0.333374ZM6.9987 1.66671C5.58421 1.66671 4.22766 2.22861 3.22746 3.2288C2.22727 4.229 1.66536 5.58555 1.66536 7.00004C1.66536 8.41453 2.22727 9.77108 3.22746 10.7713C4.22766 11.7715 5.58421 12.3334 6.9987 12.3334C8.41319 12.3334 9.76974 11.7715 10.7699 10.7713C11.7701 9.77108 12.332 8.41453 12.332 7.00004C12.332 5.58555 11.7701 4.229 10.7699 3.2288C9.76974 2.22861 8.41319 1.66671 6.9987 1.66671ZM9.55403 3.89137C9.6305 3.83773 9.72346 3.81281 9.81651 3.82098C9.90956 3.82915 9.99674 3.86989 10.0627 3.93604C10.1285 4.00187 10.1689 4.0889 10.1766 4.18168C10.1842 4.27445 10.1588 4.36694 10.1047 4.44271C8.65136 6.47337 7.85136 7.56137 7.70603 7.70737C7.5183 7.89472 7.26392 7.99994 6.9987 7.99994C6.73348 7.99994 6.47909 7.89472 6.29136 7.70737C6.10402 7.51965 5.9988 7.26526 5.9988 7.00004C5.9988 6.73482 6.10402 6.48043 6.29136 6.29271C6.5407 6.04404 7.62803 5.24337 9.55403 3.89137ZM10.6654 6.33337C10.8422 6.33337 11.0117 6.40361 11.1368 6.52864C11.2618 6.65366 11.332 6.82323 11.332 7.00004C11.332 7.17685 11.2618 7.34642 11.1368 7.47144C11.0117 7.59647 10.8422 7.66671 10.6654 7.66671C10.4886 7.66671 10.319 7.59647 10.194 7.47144C10.0689 7.34642 9.9987 7.17685 9.9987 7.00004C9.9987 6.82323 10.0689 6.65366 10.194 6.52864C10.319 6.40361 10.4886 6.33337 10.6654 6.33337ZM3.33203 6.33337C3.50884 6.33337 3.67841 6.40361 3.80344 6.52864C3.92846 6.65366 3.9987 6.82323 3.9987 7.00004C3.9987 7.17685 3.92846 7.34642 3.80344 7.47144C3.67841 7.59647 3.50884 7.66671 3.33203 7.66671C3.15522 7.66671 2.98565 7.59647 2.86063 7.47144C2.7356 7.34642 2.66536 7.17685 2.66536 7.00004C2.66536 6.82323 2.7356 6.65366 2.86063 6.52864C2.98565 6.40361 3.15522 6.33337 3.33203 6.33337ZM4.87736 3.93604C5.00237 4.06122 5.07253 4.23094 5.0724 4.40785C5.07228 4.58475 5.00188 4.75437 4.8767 4.87937C4.75152 5.00438 4.5818 5.07454 4.40489 5.07441C4.22798 5.07429 4.05837 5.00389 3.93336 4.87871C3.87147 4.81672 3.82239 4.74316 3.78892 4.6622C3.75546 4.58125 3.73827 4.4945 3.73833 4.4069C3.73839 4.31931 3.7557 4.23258 3.78928 4.15167C3.82286 4.07077 3.87205 3.99727 3.93403 3.93537C4.05921 3.81037 4.22893 3.74021 4.40584 3.74034C4.49343 3.7404 4.58016 3.75771 4.66106 3.79129C4.74197 3.82487 4.81547 3.87406 4.87736 3.93604ZM6.9987 2.66671C7.17551 2.66671 7.34508 2.73695 7.4701 2.86197C7.59513 2.98699 7.66536 3.15656 7.66536 3.33337C7.66536 3.51018 7.59513 3.67975 7.4701 3.80478C7.34508 3.9298 7.17551 4.00004 6.9987 4.00004C6.82189 4.00004 6.65232 3.9298 6.52729 3.80478C6.40227 3.67975 6.33203 3.51018 6.33203 3.33337C6.33203 3.15656 6.40227 2.98699 6.52729 2.86197C6.65232 2.73695 6.82189 2.66671 6.9987 2.66671Z" fill="#17193F"/>
</svg>
