<svg width="15" height="16" viewBox="0 0 15 16" fill="none" xmlns="http://www.w3.org/2000/svg">
<path d="M13.8333 15.5L8.58333 10.25C8.16667 10.5833 7.6875 10.8472 7.14583 11.0417C6.60417 11.2361 6.02778 11.3333 5.41667 11.3333C3.90278 11.3333 2.62167 10.8092 1.57333 9.76083C0.524444 8.71194 0 7.43056 0 5.91667C0 4.40278 0.524444 3.12139 1.57333 2.0725C2.62167 1.02417 3.90278 0.5 5.41667 0.5C6.93056 0.5 8.21194 1.02417 9.26083 2.0725C10.3092 3.12139 10.8333 4.40278 10.8333 5.91667C10.8333 6.52778 10.7361 7.10417 10.5417 7.64583C10.3472 8.1875 10.0833 8.66667 9.75 9.08333L15 14.3333L13.8333 15.5ZM5.41667 9.66667C6.45833 9.66667 7.34389 9.30222 8.07333 8.57333C8.80222 7.84389 9.16667 6.95833 9.16667 5.91667C9.16667 4.875 8.80222 3.98944 8.07333 3.26C7.34389 2.53111 6.45833 2.16667 5.41667 2.16667C4.375 2.16667 3.48944 2.53111 2.76 3.26C2.03111 3.98944 1.66667 4.875 1.66667 5.91667C1.66667 6.95833 2.03111 7.84389 2.76 8.57333C3.48944 9.30222 4.375 9.66667 5.41667 9.66667Z" fill="#979797"/>
</svg>
