<svg width="14" height="12" viewBox="0 0 14 12" fill="none" xmlns="http://www.w3.org/2000/svg">
<path d="M8.75058 10.158C9.24815 10.3025 9.76372 10.3755 10.2818 10.375C11.1151 10.3762 11.9375 10.1862 12.6858 9.81967C12.7079 9.29683 12.5589 8.78102 12.2615 8.35044C11.9641 7.91986 11.5345 7.59796 11.0377 7.43355C10.5409 7.26913 10.004 7.27115 9.50843 7.43931C9.01287 7.60747 8.58565 7.9326 8.2915 8.36542M8.75058 10.158V10.1562C8.75058 9.507 8.58375 8.89625 8.2915 8.36542M8.75058 10.158V10.2198C7.62795 10.896 6.34177 11.2522 5.03125 11.25C3.6715 11.25 2.39925 10.8737 1.31308 10.2198L1.3125 10.1562C1.31205 9.33052 1.58644 8.52813 2.09241 7.87557C2.59837 7.22302 3.30713 6.75742 4.10695 6.55218C4.90677 6.34695 5.75215 6.41375 6.5098 6.74205C7.26746 7.07036 7.8943 7.64149 8.2915 8.36542M7.00058 2.71875C7.00058 3.24089 6.79316 3.74165 6.42395 4.11087C6.05474 4.48008 5.55398 4.6875 5.03183 4.6875C4.50969 4.6875 4.00893 4.48008 3.63972 4.11087C3.2705 3.74165 3.06308 3.24089 3.06308 2.71875C3.06308 2.1966 3.2705 1.69585 3.63972 1.32663C4.00893 0.957421 4.50969 0.75 5.03183 0.75C5.55398 0.75 6.05474 0.957421 6.42395 1.32663C6.79316 1.69585 7.00058 2.1966 7.00058 2.71875ZM11.8131 4.03125C11.8131 4.43736 11.6518 4.82684 11.3646 5.11401C11.0774 5.40117 10.6879 5.5625 10.2818 5.5625C9.87572 5.5625 9.48624 5.40117 9.19908 5.11401C8.91191 4.82684 8.75058 4.43736 8.75058 4.03125C8.75058 3.62514 8.91191 3.23566 9.19908 2.94849C9.48624 2.66133 9.87572 2.5 10.2818 2.5C10.6879 2.5 11.0774 2.66133 11.3646 2.94849C11.6518 3.23566 11.8131 3.62514 11.8131 4.03125Z" stroke="white" stroke-linecap="round" stroke-linejoin="round"/>
</svg>
