<svg width="12" height="12" viewBox="0 0 12 12" fill="none" xmlns="http://www.w3.org/2000/svg">
<path d="M4.59568 1.29833C4.64818 0.982167 4.92235 0.75 5.24318 0.75H6.75577C7.0766 0.75 7.35077 0.982167 7.40327 1.29833L7.52752 2.04558C7.56427 2.26375 7.7101 2.44575 7.90377 2.55308C7.94693 2.57642 7.98952 2.6015 8.0321 2.62717C8.2211 2.7415 8.4521 2.77708 8.65918 2.6995L9.3691 2.4335C9.51458 2.37879 9.67476 2.37749 9.82111 2.42983C9.96746 2.48218 10.0905 2.58477 10.1683 2.71933L10.9243 4.03008C11.0019 4.16466 11.0292 4.32241 11.0015 4.47526C10.9737 4.62812 10.8926 4.76616 10.7726 4.86483L10.1875 5.34725C10.0166 5.48725 9.93202 5.70483 9.9361 5.92592C9.93704 5.9755 9.93704 6.02509 9.9361 6.07467C9.93202 6.29517 10.0166 6.51217 10.1869 6.65217L10.7732 7.13517C11.0205 7.33933 11.0847 7.69167 10.9249 7.96933L10.1677 9.28008C10.09 9.41462 9.96713 9.51724 9.8209 9.56969C9.67467 9.62213 9.51458 9.62101 9.3691 9.5665L8.65918 9.3005C8.4521 9.22292 8.22168 9.2585 8.03152 9.37283C7.98923 9.39855 7.94644 9.42344 7.90318 9.4475C7.7101 9.55425 7.56427 9.73625 7.52752 9.95442L7.40327 10.7011C7.35077 11.0178 7.0766 11.25 6.75577 11.25H5.2426C4.92177 11.25 4.6476 11.0178 4.5951 10.7017L4.47085 9.95442C4.43468 9.73625 4.28885 9.55425 4.09518 9.44692C4.05193 9.42306 4.00914 9.39836 3.96685 9.37283C3.77727 9.2585 3.54685 9.22292 3.33918 9.3005L2.62927 9.5665C2.48386 9.62106 2.32381 9.62227 2.17759 9.56994C2.03137 9.5176 1.90845 9.4151 1.83068 9.28067L1.0741 7.96992C0.996484 7.83534 0.969128 7.67759 0.9969 7.52474C1.02467 7.37188 1.10577 7.23384 1.22577 7.13517L1.81143 6.65275C1.98177 6.51275 2.06635 6.29517 2.06227 6.07408C2.06136 6.0245 2.06136 5.97491 2.06227 5.92533C2.06635 5.70483 1.98177 5.48783 1.81143 5.34783L1.22577 4.86483C1.10592 4.76619 1.02491 4.62825 0.997143 4.47553C0.969375 4.32281 0.996642 4.16519 1.0741 4.03067L1.83068 2.71992C1.90838 2.58525 2.03136 2.48253 2.17772 2.43008C2.32407 2.37763 2.4843 2.37884 2.62985 2.4335L3.33918 2.6995C3.54685 2.77708 3.77727 2.7415 3.96685 2.62717C4.00885 2.6015 4.05202 2.57642 4.09518 2.5525C4.28885 2.44575 4.43468 2.26375 4.47085 2.04558L4.59568 1.29833Z" stroke="white" stroke-linecap="round" stroke-linejoin="round"/>
</svg>
