<svg width="21" height="18" viewBox="0 0 21 18" fill="none" xmlns="http://www.w3.org/2000/svg">
<path d="M15.0034 8H18.0034C18.5339 8 19.0426 7.78929 19.4176 7.41421C19.7927 7.03914 20.0034 6.53043 20.0034 6V2C20.0034 1.46957 19.7927 0.960859 19.4176 0.585786C19.0426 0.210714 18.5339 0 18.0034 0H15.0034C14.473 0 13.9643 0.210714 13.5892 0.585786C13.2141 0.960859 13.0034 1.46957 13.0034 2V3H7.01342V2C7.01342 1.46957 6.8027 0.960859 6.42763 0.585786C6.05256 0.210714 5.54385 0 5.01342 0H2.00342C0.903418 0 0.00341797 0.9 0.00341797 2V6C0.00341797 6.53043 0.214132 7.03914 0.589204 7.41421C0.964277 7.78929 1.47299 8 2.00342 8H5.00342C5.53385 8 6.04256 7.78929 6.41763 7.41421C6.7927 7.03914 7.00342 6.53043 7.00342 6V5H9.00342V12.01C9.00342 13.66 10.3434 15 11.9934 15H13.0034V16C13.0034 16.5304 13.2141 17.0391 13.5892 17.4142C13.9643 17.7893 14.473 18 15.0034 18H18.0034C18.5339 18 19.0426 17.7893 19.4176 17.4142C19.7927 17.0391 20.0034 16.5304 20.0034 16V12C20.0034 11.4696 19.7927 10.9609 19.4176 10.5858C19.0426 10.2107 18.5339 10 18.0034 10H15.0034C14.473 10 13.9643 10.2107 13.5892 10.5858C13.2141 10.9609 13.0034 11.4696 13.0034 12V13H11.9934C11.4534 13 11.0034 12.55 11.0034 12.01V5H13.0034V6C13.0034 7.1 13.9034 8 15.0034 8Z" fill="#011A31"/>
</svg>
