<svg width="12" height="12" viewBox="0 0 12 12" fill="none" xmlns="http://www.w3.org/2000/svg">
<path d="M8.34632 4.45296H11.2583L9.40273 2.59622C8.80533 1.99881 8.06119 1.56919 7.24511 1.35057C6.42903 1.13194 5.56977 1.13201 4.75372 1.35075C3.93768 1.5695 3.1936 1.99922 2.59628 2.59672C1.99897 3.19422 1.56948 3.93843 1.35098 4.75455M0.740818 10.459V7.54696M0.740818 7.54696H3.65282M0.740818 7.54696L2.59582 9.40371C3.19322 10.0011 3.93736 10.4307 4.75344 10.6494C5.56952 10.868 6.42878 10.8679 7.24483 10.6492C8.06088 10.4304 8.80496 10.0007 9.40227 9.40321C9.99958 8.80571 10.4291 8.0615 10.6476 7.24538M11.2583 1.54097V4.4518" stroke="white" stroke-width="0.8" stroke-linecap="round" stroke-linejoin="round"/>
</svg>
