<svg width="14" height="12" viewBox="0 0 14 12" fill="none" xmlns="http://www.w3.org/2000/svg">
<path d="M9.95036 8.05392C10.2232 7.86757 10.5433 7.76229 10.8735 7.75025C11.2037 7.73822 11.5306 7.81992 11.8163 7.98591C12.1021 8.1519 12.3349 8.39539 12.4881 8.68822C12.6412 8.98104 12.7082 9.31123 12.6815 9.64058C11.9816 9.8852 11.2382 9.98038 10.4993 9.92C10.497 9.25886 10.3066 8.61144 9.95036 8.0545C9.63414 7.55854 9.19793 7.15035 8.6821 6.86771C8.16626 6.58507 7.58747 6.4371 6.99928 6.4375C6.41118 6.4372 5.83251 6.58521 5.31679 6.86785C4.80106 7.15049 4.36495 7.55862 4.04878 8.0545M10.4987 9.91942L10.4993 9.9375C10.4993 10.0687 10.4923 10.1982 10.4777 10.326C9.41916 10.9333 8.21966 11.252 6.99928 11.25C5.73345 11.25 4.5452 10.914 3.52086 10.326C3.50587 10.191 3.49866 10.0552 3.49928 9.91942M3.49928 9.91942C2.76056 9.98199 2.01756 9.88715 1.3182 9.64117C1.29157 9.3119 1.35868 8.98183 1.51176 8.6891C1.66485 8.39638 1.89766 8.15296 2.18328 7.987C2.4689 7.82103 2.79566 7.7393 3.12578 7.75124C3.4559 7.76319 3.7759 7.86833 4.04878 8.0545M3.49928 9.91942C3.50137 9.25834 3.69273 8.61151 4.04878 8.0545M8.74928 2.9375C8.74928 3.40163 8.5649 3.84675 8.23672 4.17494C7.90853 4.50313 7.46341 4.6875 6.99928 4.6875C6.53515 4.6875 6.09003 4.50313 5.76184 4.17494C5.43365 3.84675 5.24928 3.40163 5.24928 2.9375C5.24928 2.47337 5.43365 2.02825 5.76184 1.70006C6.09003 1.37187 6.53515 1.1875 6.99928 1.1875C7.46341 1.1875 7.90853 1.37187 8.23672 1.70006C8.5649 2.02825 8.74928 2.47337 8.74928 2.9375ZM12.2493 4.6875C12.2493 4.85986 12.2153 5.03053 12.1494 5.18977C12.0834 5.34901 11.9867 5.4937 11.8649 5.61558C11.743 5.73745 11.5983 5.83413 11.4391 5.90009C11.2798 5.96605 11.1091 6 10.9368 6C10.7644 6 10.5937 5.96605 10.4345 5.90009C10.2753 5.83413 10.1306 5.73745 10.0087 5.61558C9.88682 5.4937 9.79015 5.34901 9.72419 5.18977C9.65823 5.03053 9.62428 4.85986 9.62428 4.6875C9.62428 4.3394 9.76256 4.00556 10.0087 3.75942C10.2548 3.51328 10.5887 3.375 10.9368 3.375C11.2849 3.375 11.6187 3.51328 11.8649 3.75942C12.111 4.00556 12.2493 4.3394 12.2493 4.6875ZM4.37428 4.6875C4.37428 4.85986 4.34033 5.03053 4.27437 5.18977C4.20841 5.34901 4.11173 5.4937 3.98986 5.61558C3.86798 5.73745 3.72329 5.83413 3.56405 5.90009C3.40481 5.96605 3.23414 6 3.06178 6C2.88942 6 2.71875 5.96605 2.55951 5.90009C2.40027 5.83413 2.25558 5.73745 2.1337 5.61558C2.01182 5.4937 1.91515 5.34901 1.84919 5.18977C1.78323 5.03053 1.74928 4.85986 1.74928 4.6875C1.74928 4.3394 1.88756 4.00556 2.1337 3.75942C2.37984 3.51328 2.71368 3.375 3.06178 3.375C3.40988 3.375 3.74372 3.51328 3.98986 3.75942C4.236 4.00556 4.37428 4.3394 4.37428 4.6875Z" stroke="white" stroke-linecap="round" stroke-linejoin="round"/>
</svg>
