<svg width="30" height="24" viewBox="0 0 30 24" fill="none" xmlns="http://www.w3.org/2000/svg">
<path d="M19.0507 14.4C20.8964 14.4001 22.6709 14.9971 24.004 16.0664C25.3371 17.1357 26.126 18.5949 26.2061 20.1396L26.2132 20.4V21.6C26.2134 22.2055 25.9405 22.7887 25.449 23.2327C24.9575 23.6766 24.2839 23.9486 23.5631 23.994L23.3482 24H3.29322C2.57042 24.0002 1.87424 23.7715 1.34424 23.3598C0.814239 22.9481 0.489596 22.3838 0.435385 21.78L0.428223 21.6V20.4C0.428329 18.8538 1.14095 17.3674 2.41748 16.2507C3.694 15.1339 5.43589 14.4731 7.27987 14.406L7.59072 14.4H19.0507ZM27.6457 13.2C28.0256 13.2 28.39 13.3264 28.6587 13.5515C28.9273 13.7765 29.0782 14.0817 29.0782 14.4C29.0782 14.7183 28.9273 15.0235 28.6587 15.2485C28.39 15.4736 28.0256 15.6 27.6457 15.6H26.2132C25.8333 15.6 25.4689 15.4736 25.2003 15.2485C24.9316 15.0235 24.7807 14.7183 24.7807 14.4C24.7807 14.0817 24.9316 13.7765 25.2003 13.5515C25.4689 13.3264 25.8333 13.2 26.2132 13.2H27.6457ZM13.3207 0C15.2203 0 17.0421 0.632141 18.3854 1.75736C19.7286 2.88258 20.4832 4.4087 20.4832 6C20.4832 7.5913 19.7286 9.11742 18.3854 10.2426C17.0421 11.3679 15.2203 12 13.3207 12C11.4211 12 9.5993 11.3679 8.25607 10.2426C6.91284 9.11742 6.15822 7.5913 6.15822 6C6.15822 4.4087 6.91284 2.88258 8.25607 1.75736C9.5993 0.632141 11.4211 0 13.3207 0ZM27.6457 9.6C28.0256 9.6 28.39 9.72643 28.6587 9.95147C28.9273 10.1765 29.0782 10.4817 29.0782 10.8C29.0782 11.1183 28.9273 11.4235 28.6587 11.6485C28.39 11.8736 28.0256 12 27.6457 12H24.7807C24.4008 12 24.0364 11.8736 23.7678 11.6485C23.4991 11.4235 23.3482 11.1183 23.3482 10.8C23.3482 10.4817 23.4991 10.1765 23.7678 9.95147C24.0364 9.72643 24.4008 9.6 24.7807 9.6H27.6457ZM27.6457 6C28.0108 6.00034 28.362 6.11746 28.6275 6.32742C28.893 6.53738 29.0528 6.82434 29.0742 7.12967C29.0956 7.435 28.977 7.73565 28.7426 7.9702C28.5083 8.20474 28.1759 8.35548 27.8133 8.3916L27.6457 8.4H23.3482C22.9831 8.39966 22.6319 8.28255 22.3664 8.07258C22.1009 7.86262 21.9412 7.57566 21.9198 7.27033C21.8984 6.965 22.017 6.66435 22.2513 6.4298C22.4856 6.19526 22.8181 6.04452 23.1806 6.0084L23.3482 6H27.6457Z" fill="#94A6B6"/>
</svg>
