<svg width="15" height="20" viewBox="0 0 15 20" fill="none" xmlns="http://www.w3.org/2000/svg">
<path d="M5 20C3.61667 20 2.43733 19.5123 1.462 18.537C0.486667 17.5617 -0.000665984 16.3827 6.8306e-07 15V5C6.8306e-07 3.61667 0.487668 2.43733 1.463 1.462C2.43833 0.486667 3.61733 -0.000665984 5 6.8306e-07C6.38333 6.8306e-07 7.56267 0.487667 8.538 1.463C9.51333 2.43833 10.0007 3.61733 10 5V10H7C6.45 10 5.979 10.196 5.587 10.588C5.195 10.98 4.99933 11.4507 5 12C4.45 12 3.979 12.196 3.587 12.588C3.195 12.98 2.99933 13.4507 3 14C3 14.5333 3.196 14.9917 3.588 15.375C3.98 15.7583 4.45067 15.9667 5 16V20ZM7 20V19.425C7 18.5583 7.41667 17.9333 8.25 17.55C9.08333 17.1667 10 16.975 11 16.975C12 16.975 12.9167 17.1667 13.75 17.55C14.5833 17.9333 15 18.5583 15 19.425V20H7ZM11 16C10.45 16 9.979 15.804 9.587 15.412C9.195 15.02 8.99933 14.5493 9 14C9 13.45 9.196 12.979 9.588 12.587C9.98 12.195 10.4507 11.9993 11 12C11.55 12 12.021 12.196 12.413 12.588C12.805 12.98 13.0007 13.4507 13 14C13 14.55 12.804 15.021 12.412 15.413C12.02 15.805 11.5493 16.0007 11 16ZM5 15C4.71667 15 4.479 14.904 4.287 14.712C4.095 14.52 3.99933 14.2827 4 14C4 13.7167 4.096 13.479 4.288 13.287C4.48 13.095 4.71733 12.9993 5 13C5.28333 13 5.521 13.096 5.713 13.288C5.905 13.48 6.00067 13.7173 6 14C6 14.2833 5.904 14.521 5.712 14.713C5.52 14.905 5.28267 15.0007 5 15ZM5 8C5.55 8 6.021 7.804 6.413 7.412C6.805 7.02 7.00067 6.54933 7 6C7 5.45 6.804 4.979 6.412 4.587C6.02 4.195 5.54933 3.99933 5 4C4.45 4 3.979 4.196 3.587 4.588C3.195 4.98 2.99933 5.45067 3 6C3 6.55 3.196 7.021 3.588 7.413C3.98 7.805 4.45067 8.00067 5 8Z" fill="#011A31"/>
</svg>
