<svg width="18" height="20" viewBox="0 0 18 20" fill="none" xmlns="http://www.w3.org/2000/svg">
<path d="M2 16.85C2.9 15.9667 3.946 15.2707 5.138 14.762C6.32933 14.254 7.61667 14 9 14C10.3833 14 11.671 14.254 12.863 14.762C14.0543 15.2707 15.1 15.9667 16 16.85V4H2V16.85ZM9 12C8.03333 12 7.20833 11.6583 6.525 10.975C5.84167 10.2917 5.5 9.46667 5.5 8.5C5.5 7.53333 5.84167 6.70833 6.525 6.025C7.20833 5.34167 8.03333 5 9 5C9.96667 5 10.7917 5.34167 11.475 6.025C12.1583 6.70833 12.5 7.53333 12.5 8.5C12.5 9.46667 12.1583 10.2917 11.475 10.975C10.7917 11.6583 9.96667 12 9 12ZM2 20C1.45 20 0.979 19.8043 0.587 19.413C0.195667 19.021 0 18.55 0 18V4C0 3.45 0.195667 2.97933 0.587 2.588C0.979 2.196 1.45 2 2 2H3V1C3 0.716667 3.09567 0.479 3.287 0.287C3.479 0.0956666 3.71667 0 4 0C4.28333 0 4.521 0.0956666 4.713 0.287C4.90433 0.479 5 0.716667 5 1V2H13V1C13 0.716667 13.096 0.479 13.288 0.287C13.4793 0.0956666 13.7167 0 14 0C14.2833 0 14.5207 0.0956666 14.712 0.287C14.904 0.479 15 0.716667 15 1V2H16C16.55 2 17.021 2.196 17.413 2.588C17.8043 2.97933 18 3.45 18 4V18C18 18.55 17.8043 19.021 17.413 19.413C17.021 19.8043 16.55 20 16 20H2Z" fill="#94A6B6"/>
</svg>
